<svg width="2242" height="2946" xmlns="http://www.w3.org/2000/svg" xmlns:xlink="http://www.w3.org/1999/xlink" xml:space="preserve" overflow="hidden"><g transform="translate(-1083 237)"><text font-family="Calibri,Calibri_MSFontService,sans-serif" font-weight="400" font-size="83" transform="matrix(1 0 0 1 1133.19 -135)">&lt;</text><text font-family="Calibri,Calibri_MSFontService,sans-serif" font-weight="400" font-size="83" transform="matrix(1 0 0 1 1174.44 -135)">svg</text><text font-family="Calibri,Calibri_MSFontService,sans-serif" font-weight="400" font-size="83" transform="matrix(1 0 0 1 1299.27 -135)">width</text><text font-family="Calibri,Calibri_MSFontService,sans-serif" font-weight="400" font-size="83" transform="matrix(1 0 0 1 1491.77 -135)">="21" </text><text font-family="Calibri,Calibri_MSFontService,sans-serif" font-weight="400" font-size="83" transform="matrix(1 0 0 1 1702.03 -135)">height</text><text font-family="Calibri,Calibri_MSFontService,sans-serif" font-weight="400" font-size="83" transform="matrix(1 0 0 1 1914.97 -135)">="16" </text><text font-family="Calibri,Calibri_MSFontService,sans-serif" font-weight="400" font-size="83" transform="matrix(1 0 0 1 2125.23 -135)">viewBox</text><text font-family="Calibri,Calibri_MSFontService,sans-serif" font-weight="400" font-size="83" transform="matrix(1 0 0 1 2403.37 -135)">="0 0 21 16" </text><text font-family="Calibri,Calibri_MSFontService,sans-serif" font-weight="400" font-size="83" transform="matrix(1 0 0 1 2837.64 -135)">fill</text><text font-family="Calibri,Calibri_MSFontService,sans-serif" font-weight="400" font-size="83" transform="matrix(1 0 0 1 2919.57 -135)">="</text><text font-family="Calibri,Calibri_MSFontService,sans-serif" font-weight="400" font-size="83" transform="matrix(1 0 0 1 2994.05 -135)">none</text><text font-family="Calibri,Calibri_MSFontService,sans-serif" font-weight="400" font-size="83" transform="matrix(1 0 0 1 3165.92 -135)">" </text><text font-family="Calibri,Calibri_MSFontService,sans-serif" font-weight="400" font-size="83" transform="matrix(1 0 0 1 1133.19 -36)">xmlns</text><text font-family="Calibri,Calibri_MSFontService,sans-serif" font-weight="400" font-size="83" transform="matrix(1 0 0 1 1329.13 -36)">="http://www.w3.org/2000/svg"&gt;&lt;path d="M10.2485 </text><text font-family="Calibri,Calibri_MSFontService,sans-serif" font-weight="400" font-size="83" transform="matrix(1 0 0 1 1133.19 63)">9.50589C10.0139 9.5063 9.7854 9.43145 9.59655 </text><text font-family="Calibri,Calibri_MSFontService,sans-serif" font-weight="400" font-size="83" transform="matrix(1 0 0 1 1133.19 162)">9.29238L0.693448 2.72264C0.57761 2.63708 0.47977 2.52957 </text><text font-family="Calibri,Calibri_MSFontService,sans-serif" font-weight="400" font-size="83" transform="matrix(1 0 0 1 1133.19 261)">0.405515 2.40623C0.33126 2.28289 0.282043 2.14614 </text><text font-family="Calibri,Calibri_MSFontService,sans-serif" font-weight="400" font-size="83" transform="matrix(1 0 0 1 1133.19 360)">0.260675 2.00379C0.217521 1.71631 0.290421 1.42347 </text><text font-family="Calibri,Calibri_MSFontService,sans-serif" font-weight="400" font-size="83" transform="matrix(1 0 0 1 1133.19 459)">0.463337 1.1897C0.636253 0.955928 0.895022 0.800371 </text><text font-family="Calibri,Calibri_MSFontService,sans-serif" font-weight="400" font-size="83" transform="matrix(1 0 0 1 1133.19 558)">1.18272 0.757248C1.47041 0.714126 1.76347 0.786972 </text><text font-family="Calibri,Calibri_MSFontService,sans-serif" font-weight="400" font-size="83" transform="matrix(1 0 0 1 1133.19 657)">1.99741 0.95976L10.2485 7.04224L18.4997 0.95976C18.6155 </text><text font-family="Calibri,Calibri_MSFontService,sans-serif" font-weight="400" font-size="83" transform="matrix(1 0 0 1 1133.19 756)">0.874204 18.7471 0.812285 18.8869 0.777538C19.0266 </text><text font-family="Calibri,Calibri_MSFontService,sans-serif" font-weight="400" font-size="83" transform="matrix(1 0 0 1 1133.19 855)">0.742791 19.1719 0.735896 19.3144 0.757248C19.4568 0.7786 </text><text font-family="Calibri,Calibri_MSFontService,sans-serif" font-weight="400" font-size="83" transform="matrix(1 0 0 1 1133.19 954)">19.5937 0.82778 19.7171 0.901981C19.8405 0.976181 19.9481 </text><text font-family="Calibri,Calibri_MSFontService,sans-serif" font-weight="400" font-size="83" transform="matrix(1 0 0 1 1133.19 1053)">1.07395 20.0337 1.1897C20.1194 1.30545 20.1813 1.43692 </text><text font-family="Calibri,Calibri_MSFontService,sans-serif" font-weight="400" font-size="83" transform="matrix(1 0 0 1 1133.19 1152)">20.2161 1.57661C20.2509 1.71629 20.2578 1.86145 20.2364 </text><text font-family="Calibri,Calibri_MSFontService,sans-serif" font-weight="400" font-size="83" transform="matrix(1 0 0 1 1133.19 1251)">2.00379C20.215 2.14614 20.1658 2.28289 20.0916 </text><text font-family="Calibri,Calibri_MSFontService,sans-serif" font-weight="400" font-size="83" transform="matrix(1 0 0 1 1133.19 1350)">2.40623C20.0173 2.52957 19.9195 2.63708 19.8036 </text><text font-family="Calibri,Calibri_MSFontService,sans-serif" font-weight="400" font-size="83" transform="matrix(1 0 0 1 1133.19 1449)">2.72264L10.9005 9.29238C10.7117 9.43145 10.4831 9.5063 </text><text font-family="Calibri,Calibri_MSFontService,sans-serif" font-weight="400" font-size="83" transform="matrix(1 0 0 1 1133.19 1548)">10.2485 9.50589Z" </text><text font-family="Calibri,Calibri_MSFontService,sans-serif" font-weight="400" font-size="83" transform="matrix(1 0 0 1 1785.74 1548)">fill</text><text font-family="Calibri,Calibri_MSFontService,sans-serif" font-weight="400" font-size="83" transform="matrix(1 0 0 1 1867.67 1548)">="#7AE229"/&gt;&lt;</text><text font-family="Calibri,Calibri_MSFontService,sans-serif" font-weight="400" font-size="83" transform="matrix(1 0 0 1 2386.16 1548)">path</text><text font-family="Calibri,Calibri_MSFontService,sans-serif" font-weight="400" font-size="83" transform="matrix(1 0 0 1 2558.43 1548)">d="M10.2485 </text><text font-family="Calibri,Calibri_MSFontService,sans-serif" font-weight="400" font-size="83" transform="matrix(1 0 0 1 1133.19 1647)">15.2544C10.0139 15.2548 9.7854 15.18 9.59655 </text><text font-family="Calibri,Calibri_MSFontService,sans-serif" font-weight="400" font-size="83" transform="matrix(1 0 0 1 1133.19 1746)">15.0409L0.693448 8.47117C0.459502 8.29839 0.30383 </text><text font-family="Calibri,Calibri_MSFontService,sans-serif" font-weight="400" font-size="83" transform="matrix(1 0 0 1 1133.19 1845)">8.03981 0.260675 7.75233C0.217521 7.46485 0.290421 </text><text font-family="Calibri,Calibri_MSFontService,sans-serif" font-weight="400" font-size="83" transform="matrix(1 0 0 1 1133.19 1944)">7.17201 0.463337 6.93824C0.636253 6.70446 0.895021 </text><text font-family="Calibri,Calibri_MSFontService,sans-serif" font-weight="400" font-size="83" transform="matrix(1 0 0 1 1133.19 2043)">6.54891 1.18272 6.50578C1.47041 6.46266 1.76347 6.53551 </text><text font-family="Calibri,Calibri_MSFontService,sans-serif" font-weight="400" font-size="83" transform="matrix(1 0 0 1 1133.19 2142)">1.99741 6.7083L10.2485 12.7908L18.4997 6.7083C18.7336 </text><text font-family="Calibri,Calibri_MSFontService,sans-serif" font-weight="400" font-size="83" transform="matrix(1 0 0 1 1133.19 2241)">6.53551 19.0267 6.46266 19.3144 6.50578C19.602 6.54891 </text><text font-family="Calibri,Calibri_MSFontService,sans-serif" font-weight="400" font-size="83" transform="matrix(1 0 0 1 1133.19 2340)">19.8608 6.70446 20.0337 6.93824C20.2066 7.17201 20.2795 </text><text font-family="Calibri,Calibri_MSFontService,sans-serif" font-weight="400" font-size="83" transform="matrix(1 0 0 1 1133.19 2439)">7.46485 20.2364 7.75233C20.1932 8.03981 20.0376 8.29839 </text><text font-family="Calibri,Calibri_MSFontService,sans-serif" font-weight="400" font-size="83" transform="matrix(1 0 0 1 1133.19 2538)">19.8036 8.47117L10.9005 15.0409C10.7117 15.18 10.4831 </text><text font-family="Calibri,Calibri_MSFontService,sans-serif" font-weight="400" font-size="83" transform="matrix(1 0 0 1 1133.19 2637)">15.2548 10.2485 15.2544Z" </text><text font-family="Calibri,Calibri_MSFontService,sans-serif" font-weight="400" font-size="83" transform="matrix(1 0 0 1 2076.21 2637)">fill</text><text font-family="Calibri,Calibri_MSFontService,sans-serif" font-weight="400" font-size="83" transform="matrix(1 0 0 1 2158.14 2637)">="#7AE229"/&gt;&lt;/</text><text font-family="Calibri,Calibri_MSFontService,sans-serif" font-weight="400" font-size="83" transform="matrix(1 0 0 1 2707.13 2637)">svg</text><text font-family="Calibri,Calibri_MSFontService,sans-serif" font-weight="400" font-size="83" transform="matrix(1 0 0 1 2813.05 2637)">&gt;</text></g></svg>