<svg width="2246" height="2946" xmlns="http://www.w3.org/2000/svg" xmlns:xlink="http://www.w3.org/1999/xlink" xml:space="preserve" overflow="hidden"><g transform="translate(-1083 237)"><text font-family="Calibri,Calibri_MSFontService,sans-serif" font-weight="400" font-size="83" transform="matrix(1 0 0 1 1133.19 -135)">&lt;</text><text font-family="Calibri,Calibri_MSFontService,sans-serif" font-weight="400" font-size="83" transform="matrix(1 0 0 1 1174.44 -135)">svg</text><text font-family="Calibri,Calibri_MSFontService,sans-serif" font-weight="400" font-size="83" transform="matrix(1 0 0 1 1299.27 -135)">width</text><text font-family="Calibri,Calibri_MSFontService,sans-serif" font-weight="400" font-size="83" transform="matrix(1 0 0 1 1491.77 -135)">="21" </text><text font-family="Calibri,Calibri_MSFontService,sans-serif" font-weight="400" font-size="83" transform="matrix(1 0 0 1 1702.03 -135)">height</text><text font-family="Calibri,Calibri_MSFontService,sans-serif" font-weight="400" font-size="83" transform="matrix(1 0 0 1 1914.97 -135)">="16" </text><text font-family="Calibri,Calibri_MSFontService,sans-serif" font-weight="400" font-size="83" transform="matrix(1 0 0 1 2125.23 -135)">viewBox</text><text font-family="Calibri,Calibri_MSFontService,sans-serif" font-weight="400" font-size="83" transform="matrix(1 0 0 1 2403.37 -135)">="0 0 21 16" </text><text font-family="Calibri,Calibri_MSFontService,sans-serif" font-weight="400" font-size="83" transform="matrix(1 0 0 1 2837.64 -135)">fill</text><text font-family="Calibri,Calibri_MSFontService,sans-serif" font-weight="400" font-size="83" transform="matrix(1 0 0 1 2919.57 -135)">="</text><text font-family="Calibri,Calibri_MSFontService,sans-serif" font-weight="400" font-size="83" transform="matrix(1 0 0 1 2994.05 -135)">none</text><text font-family="Calibri,Calibri_MSFontService,sans-serif" font-weight="400" font-size="83" transform="matrix(1 0 0 1 3165.92 -135)">" </text><text font-family="Calibri,Calibri_MSFontService,sans-serif" font-weight="400" font-size="83" transform="matrix(1 0 0 1 1133.19 -36)">xmlns</text><text font-family="Calibri,Calibri_MSFontService,sans-serif" font-weight="400" font-size="83" transform="matrix(1 0 0 1 1329.13 -36)">="http://www.w3.org/2000/svg"&gt;&lt;path d="M19.6528 </text><text font-family="Calibri,Calibri_MSFontService,sans-serif" font-weight="400" font-size="83" transform="matrix(1 0 0 1 1133.19 63)">15.2547C19.4182 15.2551 19.1896 15.1803 19.0007 </text><text font-family="Calibri,Calibri_MSFontService,sans-serif" font-weight="400" font-size="83" transform="matrix(1 0 0 1 1133.19 162)">15.0412L10.7487 8.958L2.49663 15.0412C2.38078 15.1267 </text><text font-family="Calibri,Calibri_MSFontService,sans-serif" font-weight="400" font-size="83" transform="matrix(1 0 0 1 1133.19 261)">2.24919 15.1887 2.10939 15.2234C1.96959 15.2582 1.82431 </text><text font-family="Calibri,Calibri_MSFontService,sans-serif" font-weight="400" font-size="83" transform="matrix(1 0 0 1 1133.19 360)">15.2651 1.68184 15.2437C1.53937 15.2223 1.40251 15.1732 </text><text font-family="Calibri,Calibri_MSFontService,sans-serif" font-weight="400" font-size="83" transform="matrix(1 0 0 1 1133.19 459)">1.27906 15.099C1.15562 15.0247 1.04801 14.927 0.96238 </text><text font-family="Calibri,Calibri_MSFontService,sans-serif" font-weight="400" font-size="83" transform="matrix(1 0 0 1 1133.19 558)">14.8112C0.876751 14.6954 0.814779 14.5639 0.780002 </text><text font-family="Calibri,Calibri_MSFontService,sans-serif" font-weight="400" font-size="83" transform="matrix(1 0 0 1 1133.19 657)">14.4243C0.745226 14.2846 0.738325 14.1394 0.759696 </text><text font-family="Calibri,Calibri_MSFontService,sans-serif" font-weight="400" font-size="83" transform="matrix(1 0 0 1 1133.19 756)">13.997C0.802855 13.7095 0.958545 13.4509 1.19252 </text><text font-family="Calibri,Calibri_MSFontService,sans-serif" font-weight="400" font-size="83" transform="matrix(1 0 0 1 1133.19 855)">13.2781L10.0966 6.70761C10.2853 6.56802 10.5139 6.49268 </text><text font-family="Calibri,Calibri_MSFontService,sans-serif" font-weight="400" font-size="83" transform="matrix(1 0 0 1 1133.19 954)">10.7487 6.49268C10.9835 6.49268 11.212 6.56802 11.4007 </text><text font-family="Calibri,Calibri_MSFontService,sans-serif" font-weight="400" font-size="83" transform="matrix(1 0 0 1 1133.19 1053)">6.70761L20.3048 13.2781C20.4908 13.415 20.6286 13.6071 </text><text font-family="Calibri,Calibri_MSFontService,sans-serif" font-weight="400" font-size="83" transform="matrix(1 0 0 1 1133.19 1152)">20.6988 13.827C20.7689 14.0469 20.7678 14.2833 20.6955 </text><text font-family="Calibri,Calibri_MSFontService,sans-serif" font-weight="400" font-size="83" transform="matrix(1 0 0 1 1133.19 1251)">14.5025C20.6232 14.7216 20.4834 14.9124 20.2962 </text><text font-family="Calibri,Calibri_MSFontService,sans-serif" font-weight="400" font-size="83" transform="matrix(1 0 0 1 1133.19 1350)">15.0475C20.1089 15.1826 19.8837 15.2551 19.6528 15.2547Z" </text><text font-family="Calibri,Calibri_MSFontService,sans-serif" font-weight="400" font-size="83" transform="matrix(1 0 0 1 1133.19 1449)">fill</text><text font-family="Calibri,Calibri_MSFontService,sans-serif" font-weight="400" font-size="83" transform="matrix(1 0 0 1 1215.12 1449)">="#FF3D00"/&gt;&lt;</text><text font-family="Calibri,Calibri_MSFontService,sans-serif" font-weight="400" font-size="83" transform="matrix(1 0 0 1 1730.74 1449)">path</text><text font-family="Calibri,Calibri_MSFontService,sans-serif" font-weight="400" font-size="83" transform="matrix(1 0 0 1 1903.01 1449)">d="M19.6528 9.50568C19.4182 9.50609 </text><text font-family="Calibri,Calibri_MSFontService,sans-serif" font-weight="400" font-size="83" transform="matrix(1 0 0 1 1133.19 1548)">19.1896 9.43124 19.0007 9.29214L10.7487 3.20898L2.49663 </text><text font-family="Calibri,Calibri_MSFontService,sans-serif" font-weight="400" font-size="83" transform="matrix(1 0 0 1 1133.19 1647)">9.29214C2.26266 9.46495 1.96957 9.5378 1.68184 </text><text font-family="Calibri,Calibri_MSFontService,sans-serif" font-weight="400" font-size="83" transform="matrix(1 0 0 1 1133.19 1746)">9.49468C1.39412 9.45155 1.13532 9.29597 0.962385 </text><text font-family="Calibri,Calibri_MSFontService,sans-serif" font-weight="400" font-size="83" transform="matrix(1 0 0 1 1133.19 1845)">9.06218C0.789449 8.82838 0.716541 8.53551 0.7597 </text><text font-family="Calibri,Calibri_MSFontService,sans-serif" font-weight="400" font-size="83" transform="matrix(1 0 0 1 1133.19 1944)">8.24799C0.802859 7.96048 0.95855 7.70187 1.19252 </text><text font-family="Calibri,Calibri_MSFontService,sans-serif" font-weight="400" font-size="83" transform="matrix(1 0 0 1 1133.19 2043)">7.52906L10.0966 0.958588C10.2853 0.818997 10.5139 </text><text font-family="Calibri,Calibri_MSFontService,sans-serif" font-weight="400" font-size="83" transform="matrix(1 0 0 1 1133.19 2142)">0.743652 10.7487 0.743652C10.9835 0.743652 11.212 </text><text font-family="Calibri,Calibri_MSFontService,sans-serif" font-weight="400" font-size="83" transform="matrix(1 0 0 1 1133.19 2241)">0.818997 11.4007 0.958588L20.3048 7.52906C20.4908 </text><text font-family="Calibri,Calibri_MSFontService,sans-serif" font-weight="400" font-size="83" transform="matrix(1 0 0 1 1133.19 2340)">7.66598 20.6286 7.85809 20.6988 8.07797C20.769 8.29785 </text><text font-family="Calibri,Calibri_MSFontService,sans-serif" font-weight="400" font-size="83" transform="matrix(1 0 0 1 1133.19 2439)">20.7678 8.53426 20.6955 8.75344C20.6232 8.97262 20.4834 </text><text font-family="Calibri,Calibri_MSFontService,sans-serif" font-weight="400" font-size="83" transform="matrix(1 0 0 1 1133.19 2538)">9.16338 20.2962 9.29847C20.1089 9.43356 19.8837 9.50608 </text><text font-family="Calibri,Calibri_MSFontService,sans-serif" font-weight="400" font-size="83" transform="matrix(1 0 0 1 1133.19 2637)">19.6528 9.50568Z" </text><text font-family="Calibri,Calibri_MSFontService,sans-serif" font-weight="400" font-size="83" transform="matrix(1 0 0 1 1785.74 2637)">fill</text><text font-family="Calibri,Calibri_MSFontService,sans-serif" font-weight="400" font-size="83" transform="matrix(1 0 0 1 1867.67 2637)">="#FF3D00"/&gt;&lt;/</text><text font-family="Calibri,Calibri_MSFontService,sans-serif" font-weight="400" font-size="83" transform="matrix(1 0 0 1 2413.8 2637)">svg</text><text font-family="Calibri,Calibri_MSFontService,sans-serif" font-weight="400" font-size="83" transform="matrix(1 0 0 1 2519.72 2637)">&gt;</text></g></svg>